<?xml version="1.0" encoding="UTF-8"?>
<!DOCTYPE svg PUBLIC "-//W3C//DTD SVG 1.1//EN" "http://www.w3.org/Graphics/SVG/1.1/DTD/svg11.dtd">
<svg xmlns="http://www.w3.org/2000/svg" version="1.1" width="913px" height="937px" style="shape-rendering:geometricPrecision; text-rendering:geometricPrecision; image-rendering:optimizeQuality; fill-rule:evenodd; clip-rule:evenodd" xmlns:xlink="http://www.w3.org/1999/xlink">
<g><path style="opacity:1" fill="#fefffe" d="M -0.5,-0.5 C 303.833,-0.5 608.167,-0.5 912.5,-0.5C 912.5,311.833 912.5,624.167 912.5,936.5C 608.167,936.5 303.833,936.5 -0.5,936.5C -0.5,624.167 -0.5,311.833 -0.5,-0.5 Z M 376.5,105.5 C 431.504,105.167 486.504,105.5 541.5,106.5C 633.62,350.526 724.954,594.859 815.5,839.5C 760.163,839.833 704.829,839.5 649.5,838.5C 585.39,654.374 522.057,470.041 459.5,285.5C 457.089,285.137 455.589,286.137 455,288.5C 389.725,471.589 325.058,654.922 261,838.5C 207.234,839.83 153.401,839.83 99.5,838.5C 192.046,594.187 284.38,349.854 376.5,105.5 Z"/></g>
</svg>
