<?xml version="1.0" encoding="UTF-8" standalone="no"?>
<svg
   version="1.1"
   width="913px"
   height="937px"
   style="shape-rendering:geometricPrecision; text-rendering:geometricPrecision; image-rendering:optimizeQuality; fill-rule:evenodd; clip-rule:evenodd"
   id="svg6"
   sodipodi:docname="Auxon_symbol.svg"
   inkscape:version="1.1.2 (0a00cf5339, 2022-02-04)"
   xmlns:inkscape="http://www.inkscape.org/namespaces/inkscape"
   xmlns:sodipodi="http://sodipodi.sourceforge.net/DTD/sodipodi-0.dtd"
   xmlns="http://www.w3.org/2000/svg"
   xmlns:svg="http://www.w3.org/2000/svg">
  <defs
     id="defs10">
    <inkscape:path-effect
       effect="fill_between_many"
       method="originald"
       linkedpaths="#path1151,0,1|"
       id="path-effect1306" />
  </defs>
  <sodipodi:namedview
     id="namedview8"
     pagecolor="#ffffff"
     bordercolor="#666666"
     borderopacity="1.0"
     inkscape:pageshadow="2"
     inkscape:pageopacity="0.0"
     inkscape:pagecheckerboard="0"
     showgrid="false"
     inkscape:zoom="1.3745998"
     inkscape:cx="323.36685"
     inkscape:cy="459.77019"
     inkscape:window-width="3840"
     inkscape:window-height="2119"
     inkscape:window-x="1"
     inkscape:window-y="549"
     inkscape:window-maximized="1"
     inkscape:current-layer="svg6" />
  <path
     id="rect1440"
     style="fill:#fefffe;fill-opacity:1;stroke:none;stroke-opacity:1"
     d="M 458.58984 106.21289 C 417.78928 105.9224 377.07995 106.39532 376.50195 107.91602 C 376.09759 108.97989 339.67526 205.44138 295.5625 322.27539 C 251.44974 439.1094 189.59588 602.79335 158.11133 686.01758 L 100.86719 837.33398 L 138.82227 838.0625 C 176.5043 838.78473 259.25351 838.27724 260.21289 837.31836 C 260.48821 837.04318 274.7611 796.66806 291.92969 747.5957 C 326.68277 648.2622 392.87491 460.66874 430.45312 355.01172 C 442.83017 320.21173 449.17819 303.05919 453.00195 294.13672 C 453.67122 292.2591 454.33061 290.37756 455 288.5 C 455.37057 287.01333 456.23246 286.26312 457.32422 285.85547 C 457.4678 285.75235 457.64266 285.52368 457.76562 285.50586 C 457.98563 285.47398 458.21349 285.57095 458.44336 285.67188 C 458.81845 285.64884 459.06583 285.43463 459.5 285.5 C 459.86348 286.57227 460.23412 287.64259 460.59766 288.71484 C 462.97194 293.15839 466.78531 303.78231 475.57422 329.88281 C 499.49799 400.92939 565.74778 594.16243 609.64648 720.9375 L 649.95117 837.33398 L 706.54102 838.41211 C 737.66551 839.00472 774.6635 839.33314 788.75781 839.14062 L 814.38281 838.78906 L 773.08398 727.48438 C 714.01807 568.29434 542.80487 111.6398 541.22852 109.08789 C 540.28246 107.55635 499.39041 106.50338 458.58984 106.21289 z " />
</svg>
