<?xml version="1.0" encoding="UTF-8" standalone="no"?>
<!-- Generator: Adobe Illustrator 28.0.0, SVG Export Plug-In . SVG Version: 6.00 Build 0)  -->

<svg
   version="1.1"
   id="Layer_1"
   width="913px"
   height="937px"
   x="0px"
   y="0px"
   viewBox="0 0 122.71 122.71"
   style="enable-background:new 0 0 122.71 122.71;"
   xml:space="preserve"
   sodipodi:docname="Conform_symbol-whitesquare.svg"
   inkscape:version="1.1.2 (0a00cf5339, 2022-02-04)"
   xmlns:inkscape="http://www.inkscape.org/namespaces/inkscape"
   xmlns:sodipodi="http://sodipodi.sourceforge.net/DTD/sodipodi-0.dtd"
   xmlns="http://www.w3.org/2000/svg"
   xmlns:svg="http://www.w3.org/2000/svg"><defs
   id="defs9" /><sodipodi:namedview
   id="namedview7"
   pagecolor="#ffffff"
   bordercolor="#666666"
   borderopacity="1.0"
   inkscape:pageshadow="2"
   inkscape:pageopacity="0.0"
   inkscape:pagecheckerboard="0"
   showgrid="false"
   inkscape:zoom="0.68729989"
   inkscape:cx="162.22904"
   inkscape:cy="468.5"
   inkscape:window-width="1920"
   inkscape:window-height="2119"
   inkscape:window-x="1921"
   inkscape:window-y="549"
   inkscape:window-maximized="0"
   inkscape:current-layer="Layer_1" />
<style
   type="text/css"
   id="style2">
	.st0{fill:#DF5FA3;}
</style>
<path
   id="rect848"
   style="fill:#fefffe;stroke-width:1.00956"
   d="M 0 0 L 0 937 L 913 937 L 913 0 L 0 0 z M 500.16016 107.76953 C 587.39157 108.4093 669.79948 139.83473 734.87891 196.89258 C 744.77451 205.52333 745.07187 220.85001 735.77148 230.15039 L 611.29492 354.55078 C 603.33379 362.51191 590.68636 363.6281 581.68359 356.85742 C 554.15446 335.95016 519.92795 325.98036 484.36328 329.17969 C 415.83806 335.28074 361.07898 392.57207 357.58203 461.24609 C 353.48986 541.67581 417.77367 608.33984 497.31055 608.33984 C 528.03901 608.33984 557.20395 598.51958 581.31055 580.36523 C 590.38772 573.52015 603.18517 574.33928 611.2207 582.44922 L 735.62305 706.84961 C 744.92343 716.14999 744.55186 731.47844 734.65625 740.18359 C 668.95834 797.77157 585.6268 829.24414 497.38477 829.24414 C 294.11559 829.24414 129.53644 660.19882 136.90234 455.36719 C 143.59862 268.31788 295.60304 115.49499 482.65234 108.05469 C 488.50693 107.82218 494.34473 107.72688 500.16016 107.76953 z M 546.04492 201.42969 L 536.51953 239.52539 L 555.56836 244.28711 C 561.3718 245.77517 567.24966 247.48563 572.9043 249.3457 L 591.57812 255.5957 L 604.00391 218.39453 L 585.40234 212.14453 C 578.78047 209.91244 571.93688 207.90268 565.0918 206.19141 L 546.04492 201.42969 z M 445.30273 202.91797 L 426.4043 208.20117 C 366.21222 225.16507 313.23709 262.96175 277.44922 314.67188 L 266.28906 330.81641 L 298.58008 353.21289 L 309.74023 337.06641 C 340.31989 292.87099 385.55605 260.58086 437.04297 246.07227 L 455.94141 240.71484 L 445.30273 202.91797 z M 232.13672 425.68164 L 230.42578 445.25 C 229.75615 452.91352 229.45898 460.72479 229.45898 468.53711 C 229.45898 476.34943 229.75615 484.16266 230.42578 491.82617 L 232.13672 511.39258 L 271.27344 508.04492 L 269.5625 488.47656 C 269.04168 481.92909 268.74414 475.23339 268.74414 468.53711 C 268.74414 461.91524 269.04168 455.14513 269.5625 448.59766 L 271.27344 429.0293 L 232.13672 425.68164 z M 298.50586 583.63867 L 266.21484 605.95898 L 277.375 622.10547 C 313.16287 673.8156 366.06378 711.68649 426.25586 728.65039 L 445.1543 734.00781 L 455.79297 696.21094 L 436.89453 690.85352 C 385.48201 676.34492 340.24567 643.98058 309.66602 599.78516 L 298.50586 583.63867 z M 591.57812 681.47852 L 572.97852 687.6543 C 567.24948 689.58878 561.3718 691.29923 555.56836 692.71289 L 536.51953 697.47461 L 546.04492 735.57031 L 565.0918 730.95703 C 571.93688 729.17136 578.70607 727.236 585.40234 725.00391 L 604.00391 718.75391 L 591.57812 681.47852 z "
   transform="matrix(0.13440307,0,0,0.13440307,0,-1.6128368)" />
</svg>
