<?xml version="1.0" encoding="UTF-8"?>
<svg id="Layer_2" data-name="Layer 2" xmlns="http://www.w3.org/2000/svg" viewBox="0 0 31.01 36.94">
  <defs>
    <style>
      .cls-1 {
        fill: #fff;
        stroke-width: 0px;
      }
    </style>
  </defs>
  <g id="Layer_2-2" data-name="Layer 2">
    <path class="cls-1" d="M24.3,24.3c-.41-.41-1.07-.46-1.53-.11-1.23.93-2.73,1.43-4.3,1.43-4.07,0-7.36-3.42-7.15-7.53.18-3.52,2.98-6.45,6.49-6.76,1.82-.16,3.57.35,4.98,1.42.46.35,1.11.29,1.52-.12l6.37-6.37c.48-.48.46-1.26-.05-1.7C27.07,1.45,22.51-.18,17.71.01,8.14.39.36,8.22.01,17.79c-.38,10.49,8.05,19.14,18.46,19.14,4.52,0,8.79-1.61,12.15-4.56.51-.44.52-1.23.05-1.71l-6.37-6.37ZM20.96,4.8l.98.24c.35.09.7.19,1.04.3l.95.32-.64,1.91-.95-.32c-.29-.1-.59-.18-.89-.26l-.98-.24.49-1.95ZM7.21,10.59c1.83-2.65,4.54-4.58,7.63-5.45l.97-.27.54,1.93-.97.27c-2.64.74-4.95,2.4-6.52,4.66l-.57.83-1.65-1.15.57-.83ZM4.89,20.66l-.09-1c-.03-.39-.05-.79-.05-1.19s.02-.8.05-1.19l.09-1,2,.17-.09,1c-.03.34-.04.68-.04,1.02s.02.68.04,1.02l.09,1-2,.17ZM15.8,32.06l-.97-.27c-3.08-.87-5.79-2.81-7.62-5.45l-.57-.83,1.65-1.14.57.83c1.57,2.26,3.88,3.92,6.52,4.66l.97.27-.55,1.94ZM22.97,31.59c-.34.11-.69.22-1.04.3l-.98.24-.49-1.95.98-.24c.3-.07.6-.16.89-.26l.95-.32.64,1.91-.95.32Z"/>
  </g>
</svg>