<?xml version="1.0" encoding="utf-8"?>
<!-- Generator: Adobe Illustrator 28.0.0, SVG Export Plug-In . SVG Version: 6.00 Build 0)  -->
<svg version="1.1" id="Layer_1" xmlns="http://www.w3.org/2000/svg" xmlns:xlink="http://www.w3.org/1999/xlink" x="0px" y="0px"
	 viewBox="0 0 122.71 122.71" width="913px" height="937px" style="enable-background:new 0 0 122.71 122.71;" xml:space="preserve">
<style type="text/css">
	.st0{fill:#fefffe;}
</style>
<path class="st0" d="M82.15,76.67c-1.08-1.09-2.8-1.2-4.02-0.28c-3.24,2.44-7.16,3.76-11.29,3.76c-10.69,0-19.33-8.96-18.78-19.77
	c0.47-9.23,7.83-16.93,17.04-17.75c4.78-0.43,9.38,0.91,13.08,3.72c1.21,0.91,2.91,0.76,3.98-0.31l16.73-16.72
	c1.25-1.25,1.21-3.31-0.12-4.47c-9.33-8.18-21.31-12.44-33.9-11.94c-25.14,1-45.57,21.54-46.47,46.68
	c-0.99,27.53,21.13,50.25,48.45,50.25c11.86,0,23.06-4.23,31.89-11.97c1.33-1.17,1.38-3.23,0.13-4.48L82.15,76.67z M73.39,25.46
	l2.56,0.64c0.92,0.23,1.84,0.5,2.73,0.8l2.5,0.84l-1.67,5L77,31.9c-0.76-0.25-1.55-0.48-2.33-0.68l-2.56-0.64L73.39,25.46z
	 M37.29,40.68c4.81-6.95,11.93-12.03,20.02-14.31l2.54-0.71l1.43,5.08l-2.54,0.72c-6.92,1.95-13,6.29-17.11,12.23l-1.5,2.17
	l-4.34-3.01L37.29,40.68z M31.2,67.12l-0.23-2.63c-0.09-1.03-0.13-2.08-0.13-3.13c0-1.05,0.04-2.1,0.13-3.13l0.23-2.63l5.26,0.45
	l-0.23,2.63c-0.07,0.88-0.11,1.79-0.11,2.68c0,0.9,0.04,1.8,0.11,2.68l0.23,2.63L31.2,67.12z M59.83,97.04l-2.54-0.72
	C49.2,94.04,42.09,88.95,37.28,82l-1.5-2.17l4.34-3l1.5,2.17c4.11,5.94,10.19,10.29,17.1,12.24l2.54,0.72L59.83,97.04z M78.68,95.83
	c-0.9,0.3-1.81,0.56-2.73,0.8l-2.56,0.62l-1.28-5.12l2.56-0.64c0.78-0.19,1.57-0.42,2.34-0.68l2.5-0.83l1.67,5.01L78.68,95.83z"/>
</svg>
