<?xml version="1.0" encoding="UTF-8" standalone="no"?>
<!-- Generator: Adobe Illustrator 28.0.0, SVG Export Plug-In . SVG Version: 6.00 Build 0)  -->

<svg
   version="1.1"
   id="Layer_1"
   width="913px"
   height="937px"
   x="0px"
   y="0px"
   viewBox="0 0 122.71 122.71"
   style="enable-background:new 0 0 122.71 122.71;"
   xml:space="preserve"
   sodipodi:docname="Deviant_symbol-whitesquare.svg"
   inkscape:version="1.1.2 (0a00cf5339, 2022-02-04)"
   xmlns:inkscape="http://www.inkscape.org/namespaces/inkscape"
   xmlns:sodipodi="http://sodipodi.sourceforge.net/DTD/sodipodi-0.dtd"
   xmlns="http://www.w3.org/2000/svg"
   xmlns:svg="http://www.w3.org/2000/svg"><defs
   id="defs13">
	
	
</defs><sodipodi:namedview
   id="namedview11"
   pagecolor="#ffffff"
   bordercolor="#666666"
   borderopacity="1.0"
   inkscape:pageshadow="2"
   inkscape:pageopacity="0.0"
   inkscape:pagecheckerboard="0"
   showgrid="false"
   inkscape:zoom="0.68729989"
   inkscape:cx="162.22904"
   inkscape:cy="468.5"
   inkscape:window-width="2160"
   inkscape:window-height="1879"
   inkscape:window-x="3841"
   inkscape:window-y="1920"
   inkscape:window-maximized="0"
   inkscape:current-layer="Layer_1" />
<style
   type="text/css"
   id="style2">
	.st0{fill:#F17F21;}
</style>
<path
   id="rect37"
   style="fill:#fefffe;fill-rule:evenodd;stroke-width:0.992098;fill-opacity:1"
   d="M 0 0 L 0 937 L 913 937 L 913 0 L 0 0 z M 223.35742 107.75586 L 431.24023 107.75586 L 431.24023 108.27734 C 483.91761 111.17906 533.39467 126.5054 576.69727 151.13281 L 300.8125 769.79492 L 223.35742 769.79492 C 212.94099 769.79492 204.5332 761.38713 204.5332 750.9707 L 204.5332 126.58008 C 204.5332 116.16365 212.94099 107.75586 223.35742 107.75586 z M 589.49609 210.06055 C 689.49381 267.1277 756.90216 374.6399 756.97656 497.92578 C 756.97656 674.78186 618.43789 819.19906 444.03711 828.72266 L 443.66602 828.72266 C 437.71377 829.09467 431.6868 829.24414 425.66016 829.24414 C 419.63351 829.24414 413.60654 829.02027 407.6543 828.72266 L 313.60938 828.72266 L 589.49609 210.06055 z "
   transform="matrix(0.13440307,0,0,0.13440307,0,-1.6128368)" />
</svg>
