<?xml version="1.0" encoding="utf-8"?>
<!-- Generator: Adobe Illustrator 28.0.0, SVG Export Plug-In . SVG Version: 6.00 Build 0)  -->
<svg version="1.1" id="Layer_1" xmlns="http://www.w3.org/2000/svg" xmlns:xlink="http://www.w3.org/1999/xlink" x="0px" y="0px"
	 viewBox="0 0 122.71 122.71" width="913px" height="937px" style="enable-background:new 0 0 122.71 122.71;" xml:space="preserve">
<style type="text/css">
	.st0{fill:#fefffe;}
</style>
<g>
	<path class="st0" d="M79.23,26.62l-37.08,83.15h12.64c0.8,0.04,1.61,0.07,2.42,0.07c0.81,0,1.62-0.02,2.42-0.07h0.05l0,0
		c23.44-1.28,42.06-20.69,42.06-44.46C101.73,48.74,92.67,34.29,79.23,26.62z"/>
	<path class="st0" d="M57.96,12.94v-0.07H30.02c-1.4,0-2.53,1.13-2.53,2.53v83.92c0,1.4,1.13,2.53,2.53,2.53h10.41L77.51,18.7
		C71.69,15.39,65.04,13.33,57.96,12.94z"/>
</g>
</svg>
