<?xml version="1.0" encoding="UTF-8" standalone="no"?>
<!-- Generator: Adobe Illustrator 28.0.0, SVG Export Plug-In . SVG Version: 6.00 Build 0)  -->

<svg
   version="1.1"
   id="Layer_1"
   width="913px"
   height="937px"
   x="0px"
   y="0px"
   viewBox="0 0 122.71 122.71"
   style="enable-background:new 0 0 122.71 122.71;"
   xml:space="preserve"
   sodipodi:docname="Modality_symbol-whitesquare.svg"
   inkscape:version="1.1.2 (0a00cf5339, 2022-02-04)"
   xmlns:inkscape="http://www.inkscape.org/namespaces/inkscape"
   xmlns:sodipodi="http://sodipodi.sourceforge.net/DTD/sodipodi-0.dtd"
   xmlns="http://www.w3.org/2000/svg"
   xmlns:svg="http://www.w3.org/2000/svg"><defs
   id="defs23">
	
</defs><sodipodi:namedview
   id="namedview21"
   pagecolor="#ffffff"
   bordercolor="#666666"
   borderopacity="1.0"
   inkscape:pageshadow="2"
   inkscape:pageopacity="0.0"
   inkscape:pagecheckerboard="0"
   showgrid="false"
   inkscape:zoom="0.68729989"
   inkscape:cx="456.13276"
   inkscape:cy="468.5"
   inkscape:window-width="1920"
   inkscape:window-height="2119"
   inkscape:window-x="1921"
   inkscape:window-y="549"
   inkscape:window-maximized="0"
   inkscape:current-layer="Layer_1" />
<style
   type="text/css"
   id="style2">
	.st0{fill:#FFFFFF;}
	.st1{fill:#2AB7EA;}
</style>
<path
   id="rect862"
   style="fill:#fefffe;stroke-width:0.862391"
   d="M 0 0 L 0 937 L 913 937 L 913 0 L 0 0 z M 127.24023 112.48633 C 130.32734 112.56398 133.45216 113.75489 136.00977 116.3125 L 341.13672 234.16992 C 352.65174 229.04546 364.55872 224.73093 376.77734 221.29492 L 395.30273 216.08789 L 405.7207 253.06641 L 387.19336 258.27344 C 386.28056 258.52961 385.36968 258.79287 384.46094 259.06055 L 472.83203 309.83594 L 610.59961 230.00977 L 593.95898 225.83398 L 603.85547 186.10352 L 623.7207 191.08789 C 630.8634 192.87356 637.93189 194.95718 644.92578 197.26367 L 659.01172 201.95898 L 806.82617 116.3125 C 814.7873 108.12816 828.47852 113.93237 828.47852 125.46484 L 828.47852 212.81445 L 472.83203 419.50586 L 348.875 347.92969 L 348.875 392.7207 L 472.83203 466.00781 L 828.47852 257.67969 L 828.47852 307.5293 L 472.83203 514.2207 L 348.875 442.64453 L 348.875 487.43555 L 472.83203 560.72266 L 828.62695 352.46875 L 828.62695 409.68359 L 828.62695 454.10352 L 828.62695 803.72266 C 828.62695 810.93975 822.74816 816.74414 815.60547 816.74414 L 600.43359 816.74414 C 593.2165 816.74414 587.41211 810.86535 587.41211 803.72266 L 587.41211 724.32812 L 585.40234 725.00391 C 578.70607 727.236 571.93688 729.17136 565.0918 730.95703 L 546.04492 735.57031 L 542.96094 723.24023 L 532.35352 726.79102 C 525.80605 728.9487 519.11015 730.88248 512.48828 732.59375 L 493.73828 737.28125 L 484.4375 700.00586 L 503.11328 695.31836 C 508.84232 693.9047 514.57211 692.26651 520.15234 690.33203 L 538.38086 684.23242 L 542.32617 696.02344 L 555.56836 692.71289 C 561.3718 691.29923 567.24948 689.58878 572.97852 687.6543 L 587.41211 682.86133 L 587.41211 590.25977 L 472.90625 654.91602 L 355.05078 586.16797 L 355.05078 803.72266 C 355.05078 810.93975 349.17394 816.74414 342.03125 816.74414 L 126.85742 816.74414 C 119.64032 816.74414 113.83594 810.86535 113.83594 803.72266 L 113.83594 445.54688 L 113.83594 400.68164 L 113.83594 125.46484 C 113.83594 117.53627 120.44859 112.31549 127.24023 112.48633 z "
   transform="matrix(0.13440307,0,0,0.13440307,0,-1.6128368)" />






</svg>
