<?xml version="1.0" encoding="utf-8"?>
<!-- Generator: Adobe Illustrator 28.0.0, SVG Export Plug-In . SVG Version: 6.00 Build 0)  -->
<svg version="1.1" id="Layer_1" xmlns="http://www.w3.org/2000/svg" xmlns:xlink="http://www.w3.org/1999/xlink" x="0px" y="0px"
	 viewBox="0 0 122.71 122.71" width="913px" height="937px" style="enable-background:new 0 0 122.71 122.71;" xml:space="preserve">
<style type="text/css">
	.st0{fill:#fefffe;}
	.st1{fill:#fefffe;}
</style>
<path class="st0" d="M73.39,97.25l-1.28-5.12l2.56-0.64c0.78-0.19,1.57-0.42,2.34-0.68l2.5-0.83l1.67,5.01l-2.5,0.84
	c-0.9,0.3-1.81,0.56-2.73,0.8L73.39,97.25z"/>
<path class="st0" d="M33.82,47.19l-4.25-2.94l1.47-2.12c4.71-6.8,11.67-11.77,19.6-14l2.49-0.7l1.4,4.97l-2.49,0.7
	c-6.77,1.9-12.72,6.16-16.75,11.97L33.82,47.19z"/>
<path class="st0" d="M66.36,97.48l-1.25-5.01l2.51-0.63c0.77-0.19,1.54-0.41,2.29-0.67l2.45-0.82l1.64,4.9l-2.45,0.82
	c-0.88,0.29-1.78,0.55-2.67,0.78L66.36,97.48z"/>
<path class="st0" d="M87.54,30.99l-2.61-0.87c-0.8-0.27-1.62-0.5-2.43-0.71l-2.67-0.67l1.33-5.34l2.67,0.67
	c0.96,0.24,1.91,0.52,2.85,0.83l2.61,0.87L87.54,30.99z"/>
<path class="st0" d="M37.18,66.83l-0.24-2.74c-0.09-1.08-0.14-2.17-0.14-3.26c0-1.09,0.05-2.19,0.14-3.27l0.24-2.74l5.49,0.47
	l-0.24,2.74c-0.08,0.92-0.12,1.86-0.12,2.8c0,0.93,0.04,1.87,0.12,2.79l0.24,2.74L37.18,66.83z"/>
<path class="st0" d="M81.16,98.25l-1.33-5.34l2.67-0.67c0.82-0.2,1.64-0.44,2.44-0.71l2.61-0.87l1.74,5.22l-2.61,0.87
	c-0.93,0.31-1.89,0.59-2.85,0.83L81.16,98.25z"/>
<g>
	<path class="st1" d="M63.55,73.75L46.89,63.9v-6.02l16.66,9.62l47.8-27.78v-6.7l-47.8,28l-16.66-9.85v-6.02l16.66,9.62l47.8-27.78
		V15.25c0-1.55-1.84-2.33-2.91-1.23L63.55,40.03L18.28,14.02c-1.1-1.1-2.98-0.32-2.98,1.23v36.99v6.03v48.14
		c0,0.96,0.78,1.75,1.75,1.75h28.92c0.96,0,1.75-0.78,1.75-1.75V77.17l15.84,9.24l15.39-8.69v28.69c0,0.96,0.78,1.75,1.75,1.75
		h28.92c0.96,0,1.75-0.78,1.75-1.75V59.42v-5.97v-7.69L63.55,73.75z"/>
</g>
</svg>
