<?xml version="1.0" encoding="UTF-8"?>
<svg id="Layer_2" data-name="Layer 2" xmlns="http://www.w3.org/2000/svg" viewBox="0 0 35.09 34.58">
  <defs>
    <style>
      .cls-1 {
        fill: #fff;
        stroke-width: 0px;
      }
    </style>
  </defs>
  <g id="Layer_2-2" data-name="Layer 2">
    <path class="cls-1" d="M17.63,22.01l-6.09-3.6v-2.2l6.09,3.52,17.46-10.15v-2.45l-17.46,10.23-6.09-3.6v-2.2l6.09,3.52,17.46-10.15V.64c0-.57-.67-.85-1.06-.45l-16.4,9.5L1.09.19C.69-.21,0,.07,0,.64v33.3c0,.35.29.64.64.64h10.57c.35,0,.64-.29.64-.64v-10.68l5.79,3.37,5.62-3.18v10.48c0,.35.29.64.64.64h10.57c.35,0,.64-.29.64-.64V11.78l-17.46,10.23Z"/>
  </g>
</svg>